<svg width="12" height="12" viewBox="0 0 12 12" fill="none" xmlns="http://www.w3.org/2000/svg">
<path d="M11.893 11.41C12.023 11.54 12.023 11.76 11.893 11.9C11.823 11.97 11.733 12 11.643 12C11.553 12 11.463 11.97 11.393 11.9L6.36305 6.86999L1.34305 11.9C1.27305 11.97 1.18305 12 1.09305 12C1.00305 12 0.913047 11.97 0.853047 11.9C0.713047 11.76 0.713047 11.54 0.853047 11.41L5.88305 6.37999L0.853047 1.35C0.713047 1.21 0.713047 0.989995 0.853047 0.849995C0.983047 0.709995 1.20305 0.709995 1.34305 0.849995L6.37305 5.87999L11.403 0.849995C11.543 0.709995 11.763 0.709995 11.903 0.849995C12.033 0.989995 12.033 1.21 11.903 1.35L6.87305 6.37999L11.903 11.41H11.893Z" fill="#231F20"/>
</svg>
